<svg width="165" height="32" viewBox="0 0 165 32" fill="none" xmlns="http://www.w3.org/2000/svg">
<path d="M161 0H4C1.79086 0 0 1.79086 0 4V28C0 30.2091 1.79086 32 4 32H161C163.209 32 165 30.2091 165 28V4C165 1.79086 163.209 0 161 0Z" fill="#FBB641"/>
<path d="M161 0.5H4C2.067 0.5 0.5 2.067 0.5 4V28C0.5 29.933 2.067 31.5 4 31.5H161C162.933 31.5 164.5 29.933 164.5 28V4C164.5 2.067 162.933 0.5 161 0.5Z" stroke="black" stroke-opacity="0.1"/>
<path d="M31.5 0V32" stroke="black" stroke-opacity="0.1"/>
<path d="M39.9988 21V11.9091H45.6983V13.0898H41.3704V15.8597H45.4009V17.036H41.3704V19.8192H45.7516V21H39.9988ZM49.9763 21.1332C49.4259 21.1332 48.9347 20.9926 48.5026 20.7115C48.0735 20.4274 47.7362 20.0234 47.4905 19.4996C47.2479 18.9729 47.1266 18.3411 47.1266 17.6042C47.1266 16.8674 47.2494 16.237 47.495 15.7132C47.7436 15.1895 48.0839 14.7885 48.5159 14.5103C48.948 14.2321 49.4378 14.093 49.9852 14.093C50.4084 14.093 50.7487 14.1641 51.0062 14.3061C51.2666 14.4452 51.4678 14.608 51.6099 14.7944C51.7549 14.9808 51.8673 15.1451 51.9472 15.2871H52.0271V11.9091H53.3544V21H52.0582V19.9391H51.9472C51.8673 20.0841 51.7519 20.2498 51.601 20.4363C51.453 20.6227 51.2488 20.7855 50.9884 20.9245C50.728 21.0636 50.3906 21.1332 49.9763 21.1332ZM50.2693 20.0012C50.6511 20.0012 50.9736 19.9006 51.237 19.6994C51.5033 19.4952 51.7046 19.2126 51.8407 18.8516C51.9798 18.4905 52.0493 18.0703 52.0493 17.5909C52.0493 17.1174 51.9813 16.7031 51.8451 16.348C51.709 15.9929 51.5092 15.7162 51.2459 15.5179C50.9825 15.3197 50.657 15.2205 50.2693 15.2205C49.8698 15.2205 49.5369 15.3241 49.2706 15.5312C49.0042 15.7384 48.803 16.021 48.6669 16.3791C48.5337 16.7372 48.4671 17.1411 48.4671 17.5909C48.4671 18.0466 48.5352 18.4565 48.6713 18.8205C48.8074 19.1845 49.0087 19.473 49.275 19.6861C49.5443 19.8962 49.8757 20.0012 50.2693 20.0012ZM55.2487 21V14.1818H56.5759V21H55.2487ZM55.9189 13.1298C55.6881 13.1298 55.4898 13.0529 55.3241 12.899C55.1614 12.7421 55.08 12.5557 55.08 12.3397C55.08 12.1207 55.1614 11.9342 55.3241 11.7804C55.4898 11.6235 55.6881 11.5451 55.9189 11.5451C56.1498 11.5451 56.3466 11.6235 56.5093 11.7804C56.675 11.9342 56.7579 12.1207 56.7579 12.3397C56.7579 12.5557 56.675 12.7421 56.5093 12.899C56.3466 13.0529 56.1498 13.1298 55.9189 13.1298ZM61.5442 14.1818V15.2472H57.8199V14.1818H61.5442ZM58.8187 12.5483H60.1459V18.998C60.1459 19.2555 60.1844 19.4493 60.2613 19.5795C60.3383 19.7068 60.4374 19.7941 60.5587 19.8414C60.683 19.8858 60.8177 19.908 60.9627 19.908C61.0692 19.908 61.1624 19.9006 61.2423 19.8858C61.3222 19.871 61.3844 19.8592 61.4288 19.8503L61.6685 20.9467C61.5915 20.9763 61.482 21.0059 61.34 21.0355C61.1979 21.0681 61.0204 21.0858 60.8073 21.0888C60.4581 21.0947 60.1326 21.0326 59.8307 20.9023C59.5289 20.7721 59.2848 20.5709 59.0983 20.2987C58.9119 20.0264 58.8187 19.6846 58.8187 19.2733V12.5483ZM66.3204 21V14.1818H67.6477V21H66.3204ZM66.9907 13.1298C66.7599 13.1298 66.5616 13.0529 66.3959 12.899C66.2331 12.7421 66.1518 12.5557 66.1518 12.3397C66.1518 12.1207 66.2331 11.9342 66.3959 11.7804C66.5616 11.6235 66.7599 11.5451 66.9907 11.5451C67.2215 11.5451 67.4183 11.6235 67.5811 11.7804C67.7468 11.9342 67.8297 12.1207 67.8297 12.3397C67.8297 12.5557 67.7468 12.7421 67.5811 12.899C67.4183 13.0529 67.2215 13.1298 66.9907 13.1298ZM70.7605 16.9517V21H69.4332V14.1818H70.7072V15.2915H70.7915C70.9484 14.9305 71.194 14.6405 71.5284 14.4215C71.8658 14.2025 72.2904 14.093 72.8024 14.093C73.267 14.093 73.6739 14.1907 74.0231 14.386C74.3723 14.5784 74.6431 14.8654 74.8354 15.2472C75.0278 15.6289 75.1239 16.1009 75.1239 16.6632V21H73.7967V16.823C73.7967 16.3288 73.668 15.9426 73.4105 15.6644C73.1531 15.3833 72.7994 15.2427 72.3496 15.2427C72.0418 15.2427 71.7681 15.3093 71.5284 15.4425C71.2917 15.5756 71.1038 15.771 70.9647 16.0284C70.8285 16.2829 70.7605 16.5907 70.7605 16.9517ZM83.852 11.9091H85.2191V18.3544C85.2191 18.9374 85.1037 19.436 84.8729 19.8503C84.645 20.2646 84.324 20.5813 83.9097 20.8002C83.4954 21.0163 83.01 21.1243 82.4537 21.1243C81.9417 21.1243 81.4816 21.0311 81.0732 20.8446C80.6678 20.6582 80.3467 20.3874 80.11 20.0323C79.8762 19.6742 79.7593 19.2392 79.7593 18.7273H81.122C81.122 18.9788 81.1797 19.1963 81.2951 19.3798C81.4135 19.5633 81.5748 19.7068 81.779 19.8104C81.9861 19.911 82.2229 19.9613 82.4892 19.9613C82.7792 19.9613 83.0248 19.9006 83.2261 19.7793C83.4303 19.655 83.5856 19.473 83.6922 19.2333C83.7987 18.9936 83.852 18.7006 83.852 18.3544V11.9091ZM92.1738 14.2972C92.1265 13.877 91.9312 13.5515 91.5879 13.3207C91.2446 13.0869 90.8126 12.97 90.2917 12.97C89.9189 12.97 89.5963 13.0292 89.324 13.1475C89.0518 13.263 88.8402 13.4228 88.6893 13.627C88.5413 13.8282 88.4673 14.0575 88.4673 14.315C88.4673 14.531 88.5176 14.7174 88.6183 14.8743C88.7218 15.0311 88.8565 15.1628 89.0222 15.2694C89.1909 15.3729 89.3714 15.4602 89.5637 15.5312C89.7561 15.5993 89.9411 15.6555 90.1186 15.6999L91.0064 15.9308C91.2964 16.0018 91.5938 16.098 91.8986 16.2193C92.2034 16.3406 92.486 16.5004 92.7464 16.6987C93.0069 16.897 93.217 17.1426 93.3768 17.4355C93.5395 17.7285 93.6209 18.0792 93.6209 18.4876C93.6209 19.0025 93.4877 19.4597 93.2214 19.8592C92.958 20.2587 92.5748 20.5739 92.0717 20.8047C91.5716 21.0355 90.9664 21.1509 90.2562 21.1509C89.5756 21.1509 88.9867 21.0429 88.4895 20.8269C87.9924 20.6109 87.6032 20.3046 87.3221 19.908C87.041 19.5085 86.8856 19.035 86.856 18.4876H88.2321C88.2587 18.8161 88.3652 19.0898 88.5517 19.3088C88.7411 19.5248 88.9822 19.6861 89.2752 19.7926C89.5711 19.8962 89.8952 19.948 90.2473 19.948C90.635 19.948 90.9798 19.8873 91.2816 19.766C91.5864 19.6417 91.8261 19.4701 92.0007 19.2511C92.1753 19.0291 92.2626 18.7702 92.2626 18.4743C92.2626 18.205 92.1857 17.9845 92.0318 17.8129C91.8809 17.6412 91.6752 17.4992 91.4148 17.3867C91.1573 17.2743 90.8658 17.1751 90.5403 17.0893L89.4661 16.7963C88.7381 16.5981 88.161 16.3066 87.7349 15.9219C87.3117 15.5372 87.1001 15.0282 87.1001 14.3949C87.1001 13.8711 87.2422 13.4139 87.5263 13.0233C87.8104 12.6326 88.1951 12.3293 88.6804 12.1133C89.1657 11.8943 89.7132 11.7848 90.3228 11.7848C90.9383 11.7848 91.4814 11.8928 91.9519 12.1088C92.4254 12.3249 92.7982 12.6223 93.0705 13.0011C93.3427 13.3769 93.4848 13.8089 93.4966 14.2972H92.1738ZM95.26 21V11.9091H100.897V13.0898H96.6316V15.8597H100.493V17.036H96.6316V21H95.26ZM102.478 21V14.1818H103.805V21H102.478ZM103.148 13.1298C102.917 13.1298 102.719 13.0529 102.553 12.899C102.39 12.7421 102.309 12.5557 102.309 12.3397C102.309 12.1207 102.39 11.9342 102.553 11.7804C102.719 11.6235 102.917 11.5451 103.148 11.5451C103.379 11.5451 103.576 11.6235 103.738 11.7804C103.904 11.9342 103.987 12.1207 103.987 12.3397C103.987 12.5557 103.904 12.7421 103.738 12.899C103.576 13.0529 103.379 13.1298 103.148 13.1298ZM108.143 21.1332C107.592 21.1332 107.101 20.9926 106.669 20.7115C106.24 20.4274 105.903 20.0234 105.657 19.4996C105.414 18.9729 105.293 18.3411 105.293 17.6042C105.293 16.8674 105.416 16.237 105.661 15.7132C105.91 15.1895 106.25 14.7885 106.682 14.5103C107.114 14.2321 107.604 14.093 108.152 14.093C108.575 14.093 108.915 14.1641 109.173 14.3061C109.433 14.4452 109.634 14.608 109.776 14.7944C109.921 14.9808 110.034 15.1451 110.114 15.2871H110.194V11.9091H111.521V21H110.225V19.9391H110.114C110.034 20.0841 109.918 20.2498 109.767 20.4363C109.62 20.6227 109.415 20.7855 109.155 20.9245C108.895 21.0636 108.557 21.1332 108.143 21.1332ZM108.436 20.0012C108.818 20.0012 109.14 19.9006 109.403 19.6994C109.67 19.4952 109.871 19.2126 110.007 18.8516C110.146 18.4905 110.216 18.0703 110.216 17.5909C110.216 17.1174 110.148 16.7031 110.012 16.348C109.876 15.9929 109.676 15.7162 109.412 15.5179C109.149 15.3197 108.823 15.2205 108.436 15.2205C108.036 15.2205 107.703 15.3241 107.437 15.5312C107.171 15.7384 106.969 16.021 106.833 16.3791C106.7 16.7372 106.634 17.1411 106.634 17.5909C106.634 18.0466 106.702 18.4565 106.838 18.8205C106.974 19.1845 107.175 19.473 107.441 19.6861C107.711 19.8962 108.042 20.0012 108.436 20.0012ZM115.968 21.1332C115.417 21.1332 114.926 20.9926 114.494 20.7115C114.065 20.4274 113.727 20.0234 113.482 19.4996C113.239 18.9729 113.118 18.3411 113.118 17.6042C113.118 16.8674 113.241 16.237 113.486 15.7132C113.735 15.1895 114.075 14.7885 114.507 14.5103C114.939 14.2321 115.429 14.093 115.976 14.093C116.4 14.093 116.74 14.1641 116.997 14.3061C117.258 14.4452 117.459 14.608 117.601 14.7944C117.746 14.9808 117.859 15.1451 117.938 15.2871H118.018V11.9091H119.346V21H118.049V19.9391H117.938C117.859 20.0841 117.743 20.2498 117.592 20.4363C117.444 20.6227 117.24 20.7855 116.98 20.9245C116.719 21.0636 116.382 21.1332 115.968 21.1332ZM116.261 20.0012C116.642 20.0012 116.965 19.9006 117.228 19.6994C117.495 19.4952 117.696 19.2126 117.832 18.8516C117.971 18.4905 118.041 18.0703 118.041 17.5909C118.041 17.1174 117.972 16.7031 117.836 16.348C117.7 15.9929 117.5 15.7162 117.237 15.5179C116.974 15.3197 116.648 15.2205 116.261 15.2205C115.861 15.2205 115.528 15.3241 115.262 15.5312C114.995 15.7384 114.794 16.021 114.658 16.3791C114.525 16.7372 114.458 17.1411 114.458 17.5909C114.458 18.0466 114.526 18.4565 114.663 18.8205C114.799 19.1845 115 19.473 115.266 19.6861C115.535 19.8962 115.867 20.0012 116.261 20.0012ZM122.567 11.9091V21H121.24V11.9091H122.567ZM127.291 21.1376C126.619 21.1376 126.041 20.9941 125.556 20.707C125.073 20.417 124.7 20.0101 124.437 19.4863C124.177 18.9596 124.046 18.3426 124.046 17.6353C124.046 16.9369 124.177 16.3214 124.437 15.7887C124.7 15.256 125.067 14.8403 125.538 14.5414C126.011 14.2425 126.565 14.093 127.198 14.093C127.583 14.093 127.956 14.1567 128.317 14.2839C128.678 14.4112 129.002 14.6109 129.289 14.8832C129.576 15.1554 129.802 15.5091 129.968 15.9441C130.134 16.3761 130.216 16.9014 130.216 17.5199V17.9904H124.797V16.9961H128.916C128.916 16.6469 128.845 16.3377 128.703 16.0684C128.561 15.7961 128.361 15.5816 128.104 15.4247C127.849 15.2679 127.55 15.1895 127.207 15.1895C126.834 15.1895 126.509 15.2812 126.23 15.4647C125.955 15.6452 125.742 15.8819 125.591 16.1749C125.443 16.4649 125.369 16.7801 125.369 17.1204V17.8972C125.369 18.3529 125.449 18.7406 125.609 19.0602C125.772 19.3798 125.998 19.6239 126.288 19.7926C126.578 19.9583 126.917 20.0412 127.305 20.0412C127.556 20.0412 127.785 20.0057 127.993 19.9347C128.2 19.8607 128.379 19.7512 128.53 19.6062C128.681 19.4612 128.796 19.2821 128.876 19.0691L130.132 19.2955C130.032 19.6654 129.851 19.9894 129.591 20.2676C129.333 20.5428 129.009 20.7573 128.618 20.9112C128.231 21.0621 127.788 21.1376 127.291 21.1376Z" fill="black"/>
<path d="M16.6667 17.4476C15.9683 16.7466 15.1619 15.8387 14.2784 15.8387C13.3882 15.8387 12.6667 16.4886 12.6667 17.2903C12.6667 18.092 13.3882 18.7419 14.2784 18.7419C15.08 18.7419 15.472 18.2622 15.6964 18.0312M16.3333 17.1331C17.0317 17.834 17.8381 18.7419 18.7216 18.7419C19.6118 18.7419 20.3333 18.092 20.3333 17.2903C20.3333 16.4886 19.6118 15.8387 18.7216 15.8387C17.92 15.8387 17.528 16.3184 17.3036 16.5494M24 18.17C24 16.9879 23.2483 15.9749 22.1805 15.5474C22.1855 15.4619 22.1933 15.3771 22.1933 15.29C22.1933 12.9209 20.1959 11 17.7312 11C15.9541 11 14.4239 12.001 13.7063 13.4464C13.3578 13.1869 12.9217 13.0308 12.4478 13.0308C11.3108 13.0308 10.389 13.917 10.389 15.0099C10.389 15.215 10.4214 15.4136 10.4822 15.5996C9.59613 16.1066 9 17.033 9 18.0966C9 19.6862 10.3283 20.9755 11.9755 20.9999H21.0457C22.6773 21.0097 24 19.7384 24 18.17Z" stroke="black"/>
</svg>
