<svg xmlns="http://www.w3.org/2000/svg" width="165" height="32" fill="none" viewBox="0 0 165 32"><path fill="#24292f" d="M161 0H4a4 4 0 0 0-4 4v24a4 4 0 0 0 4 4h157a4 4 0 0 0 4-4V4a4 4 0 0 0-4-4"/><path stroke="#000" stroke-opacity=".1" d="M161 .5H4A3.5 3.5 0 0 0 .5 4v24A3.5 3.5 0 0 0 4 31.5h157a3.5 3.5 0 0 0 3.5-3.5V4A3.5 3.5 0 0 0 161 .5ZM31.5 0v32"/><path fill="#fff" d="M39.999 21v-9.09h5.7v1.18H41.37v2.77h4.03v1.176h-4.03v2.783h4.382V21zm9.977.133q-.825 0-1.473-.421-.645-.428-1.013-1.212-.363-.79-.363-1.896t.368-1.89q.373-.786 1.02-1.204a2.66 2.66 0 0 1 1.47-.417q.635 0 1.021.213.39.21.604.488.217.28.337.493h.08V11.91h1.327V21h-1.296v-1.06h-.11q-.12.216-.347.496-.222.28-.613.488-.39.21-1.012.21m.293-1.132q.573 0 .968-.302.4-.306.604-.847.208-.542.208-1.261 0-.71-.204-1.243a1.83 1.83 0 0 0-.6-.83q-.394-.297-.976-.298-.6 0-.998.311-.4.31-.604.848-.2.537-.2 1.212 0 .683.204 1.23.205.545.604.865.404.315.994.315m4.98.999v-6.818h1.327V21zm.67-7.87a.84.84 0 0 1-.595-.231.75.75 0 0 1-.244-.56q0-.328.244-.559a.84.84 0 0 1 .595-.235.82.82 0 0 1 .59.235q.249.23.249.56a.75.75 0 0 1-.249.559.83.83 0 0 1-.59.23m5.625 1.052v1.065H57.82v-1.065zm-2.725-1.634h1.327v6.45q0 .387.115.581a.6.6 0 0 0 .298.262q.186.067.404.067.16 0 .28-.022l.186-.036.24 1.097q-.116.045-.329.088a2.6 2.6 0 0 1-.533.054 2.3 2.3 0 0 1-.976-.187 1.68 1.68 0 0 1-.733-.603q-.28-.409-.28-1.026zM66.32 21v-6.818h1.328V21zm.67-7.87a.84.84 0 0 1-.594-.231.75.75 0 0 1-.244-.56q0-.328.244-.559a.84.84 0 0 1 .595-.235.82.82 0 0 1 .59.235q.249.23.249.56a.75.75 0 0 1-.249.559.83.83 0 0 1-.59.23m3.77 3.822V21h-1.327v-6.818h1.274v1.11h.085a1.95 1.95 0 0 1 .736-.87q.506-.33 1.274-.329.698 0 1.221.293.524.289.812.861.29.573.289 1.416V21h-1.327v-4.177q0-.74-.386-1.159-.387-.42-1.061-.421-.462 0-.822.2a1.44 1.44 0 0 0-.563.585q-.204.382-.205.924m17.11-2.087h-1.386a2.12 2.12 0 0 0-.83-1.354 2.3 2.3 0 0 0-.706-.355 2.8 2.8 0 0 0-.82-.12q-.787 0-1.408.396-.617.395-.977 1.158-.355.764-.355 1.864 0 1.11.355 1.874.36.763.982 1.154.621.39 1.398.39.43 0 .816-.115.39-.12.706-.35a2.126 2.126 0 0 0 .839-1.336l1.385.004a3.7 3.7 0 0 1-.43 1.234q-.315.56-.813.967-.492.405-1.127.626a4.2 4.2 0 0 1-1.385.222q-1.181 0-2.104-.559-.924-.564-1.456-1.611-.528-1.048-.528-2.5 0-1.455.532-2.499.532-1.047 1.456-1.607.924-.563 2.1-.563.723 0 1.35.208.63.205 1.131.604.502.396.83.968.33.568.444 1.3m4.406 6.273q-.96 0-1.673-.44a2.96 2.96 0 0 1-1.11-1.23q-.396-.79-.395-1.846 0-1.061.395-1.855.395-.795 1.11-1.234.714-.44 1.673-.44t1.673.44 1.11 1.234.395 1.855q0 1.056-.395 1.847a2.96 2.96 0 0 1-1.11 1.23q-.714.439-1.673.439m.004-1.115q.622 0 1.03-.328t.604-.875q.2-.546.2-1.203 0-.651-.2-1.198a1.95 1.95 0 0 0-.604-.883q-.408-.333-1.03-.333-.626 0-1.038.333a2 2 0 0 0-.609.883q-.195.547-.195 1.198 0 .658.195 1.203.2.546.609.875.412.328 1.038.328m7.208 1.11q-.826 0-1.474-.421-.643-.428-1.012-1.212-.364-.79-.364-1.896t.369-1.89q.373-.786 1.02-1.204a2.66 2.66 0 0 1 1.47-.417q.634 0 1.021.213.39.21.604.488.217.28.337.493h.08V11.91h1.327V21h-1.296v-1.06h-.111q-.12.216-.346.496-.222.28-.613.488-.39.21-1.012.21m.293-1.132q.572 0 .968-.302.399-.306.603-.847.209-.542.209-1.261 0-.71-.204-1.243a1.83 1.83 0 0 0-.599-.83q-.395-.297-.977-.298-.6 0-.999.311-.399.31-.603.848-.2.537-.2 1.212 0 .683.204 1.23.204.545.604.865.403.315.994.315m7.918 1.137q-1.008 0-1.736-.431a2.9 2.9 0 0 1-1.118-1.22q-.391-.79-.391-1.852 0-1.047.391-1.846.394-.8 1.101-1.248.71-.448 1.66-.448.576 0 1.118.19.541.192.972.6t.68 1.061q.248.648.248 1.576v.47h-5.42v-.994h4.12q0-.524-.213-.928a1.62 1.62 0 0 0-1.496-.879q-.56 0-.977.276-.412.27-.639.71a2.05 2.05 0 0 0-.222.945v.777q0 .684.24 1.163.244.48.679.733.435.248 1.016.248.378 0 .688-.106.31-.111.537-.329a1.4 1.4 0 0 0 .347-.537l1.256.227q-.151.554-.542.972-.386.413-.972.643-.581.227-1.327.227m9.507-5.292-1.203.213a1.4 1.4 0 0 0-.24-.439 1.2 1.2 0 0 0-.435-.342 1.6 1.6 0 0 0-.688-.133q-.564 0-.941.253-.377.249-.377.644 0 .342.253.55.253.21.817.342l1.083.248q.94.219 1.403.67.46.454.461 1.177 0 .614-.355 1.092-.351.475-.981.746-.626.27-1.451.27-1.146 0-1.869-.488-.724-.492-.888-1.398l1.283-.195q.12.501.493.759.372.252.972.253.652 0 1.043-.27.39-.276.39-.671a.7.7 0 0 0-.239-.537q-.235-.218-.724-.329l-1.154-.253q-.954-.218-1.412-.692-.452-.476-.452-1.203 0-.604.337-1.057.338-.453.932-.705a3.4 3.4 0 0 1 1.363-.258q1.105 0 1.74.48.635.474.839 1.273m1.592 7.71v-9.374h1.297v1.105h.111q.115-.213.333-.493t.603-.488q.387-.213 1.021-.213.826 0 1.474.417.648.419 1.016 1.203.373.786.373 1.891t-.368 1.896q-.369.785-1.012 1.212a2.62 2.62 0 0 1-1.47.421q-.621 0-1.016-.209a1.9 1.9 0 0 1-.613-.488 4 4 0 0 1-.341-.497h-.08v3.618zm1.301-5.965q0 .72.209 1.26.209.542.603.848.395.302.968.302.595 0 .994-.315a1.95 1.95 0 0 0 .604-.866q.209-.545.209-1.23 0-.674-.204-1.21a1.86 1.86 0 0 0-.604-.849q-.399-.31-.999-.31-.577 0-.976.297a1.8 1.8 0 0 0-.6.83q-.204.533-.204 1.243m8.399 3.56a2.8 2.8 0 0 1-1.172-.24 1.97 1.97 0 0 1-.83-.706q-.302-.461-.302-1.131 0-.578.222-.95.222-.374.599-.59a3.1 3.1 0 0 1 .843-.33q.467-.11.95-.168l.995-.115q.381-.05.554-.156t.174-.346v-.031q0-.582-.329-.901-.324-.32-.968-.32-.67 0-1.056.298-.382.292-.528.652l-1.248-.284a2.4 2.4 0 0 1 .648-1.003q.43-.387.99-.56a3.9 3.9 0 0 1 1.177-.177q.408 0 .865.098.462.093.861.346.405.253.662.723.257.466.257 1.212V21h-1.296v-.932h-.053q-.13.257-.386.506a2.1 2.1 0 0 1-.662.413q-.404.165-.967.164m.288-1.065q.55 0 .941-.218.395-.217.599-.568.209-.355.209-.76v-.878q-.07.071-.275.133a4 4 0 0 1-.457.102l-.502.076q-.245.03-.408.053a3.3 3.3 0 0 0-.706.164 1.2 1.2 0 0 0-.506.333q-.187.213-.187.568 0 .493.364.746.364.249.928.249m7.716 1.052q-.99 0-1.705-.449a2.98 2.98 0 0 1-1.092-1.247q-.381-.795-.381-1.82 0-1.039.39-1.833a3 3 0 0 1 1.101-1.248q.711-.448 1.674-.448.777 0 1.385.289.607.283.981.799.377.515.448 1.203h-1.292a1.55 1.55 0 0 0-.488-.826q-.378-.346-1.012-.346-.555 0-.972.293-.413.288-.644.825-.231.533-.231 1.26 0 .747.227 1.288.227.54.639.84.417.296.981.297.377 0 .683-.138a1.4 1.4 0 0 0 .52-.404q.213-.263.297-.63h1.292q-.07.66-.431 1.18-.358.52-.963.817-.599.297-1.407.298m7.159 0q-1.007 0-1.736-.431a2.9 2.9 0 0 1-1.118-1.22q-.391-.79-.391-1.852 0-1.047.391-1.846.395-.8 1.1-1.248.71-.448 1.661-.448.576 0 1.118.19.541.192.972.6t.68 1.061q.248.648.248 1.576v.47h-5.42v-.994h4.12q0-.524-.214-.928a1.6 1.6 0 0 0-.599-.643 1.67 1.67 0 0 0-.896-.236q-.56 0-.977.276-.412.27-.639.71a2.05 2.05 0 0 0-.222.945v.777q0 .684.24 1.163.244.48.679.733.435.248 1.016.248.378 0 .688-.106.31-.111.537-.329a1.4 1.4 0 0 0 .347-.537l1.256.227q-.151.554-.542.972-.386.413-.972.643a3.6 3.6 0 0 1-1.327.227m9.507-5.292-1.203.213a1.4 1.4 0 0 0-.24-.439 1.2 1.2 0 0 0-.435-.342 1.6 1.6 0 0 0-.688-.133q-.564 0-.941.253-.377.249-.377.644 0 .342.253.55.253.21.817.342l1.083.248q.941.219 1.402.67.462.454.462 1.177 0 .614-.355 1.092-.351.475-.981.746-.626.27-1.452.27-1.145 0-1.868-.488-.725-.492-.888-1.398l1.283-.195q.12.501.492.759.373.252.973.253.652 0 1.043-.27.39-.276.39-.671a.7.7 0 0 0-.239-.537q-.235-.218-.724-.329l-1.154-.253q-.954-.218-1.412-.692-.452-.476-.452-1.203 0-.604.337-1.057.338-.453.932-.705a3.4 3.4 0 0 1 1.363-.258q1.106 0 1.74.48.635.474.839 1.273"/><g clip-path="url(#a)"><path fill="#fff" fill-rule="evenodd" d="M16.478 9C12.343 9 9 12.438 9 16.69c0 3.4 2.142 6.277 5.113 7.295.372.077.508-.165.508-.369 0-.178-.013-.789-.013-1.426-2.08.459-2.513-.916-2.513-.916-.334-.892-.83-1.12-.83-1.12-.68-.472.05-.472.05-.472.755.051 1.152.79 1.152.79.668 1.17 1.745.84 2.178.636.062-.496.26-.84.47-1.031-1.658-.178-3.404-.84-3.404-3.794 0-.84.297-1.528.768-2.063-.074-.19-.334-.98.074-2.037 0 0 .631-.204 2.055.79a7 7 0 0 1 1.87-.255c.631 0 1.275.089 1.869.254 1.424-.993 2.055-.789 2.055-.789.409 1.057.149 1.846.074 2.037.483.535.768 1.222.768 2.063 0 2.954-1.745 3.603-3.417 3.794.272.242.508.7.508 1.426 0 1.031-.013 1.859-.013 2.113 0 .204.137.446.508.37 2.971-1.02 5.113-3.896 5.113-7.296C23.955 12.437 20.6 9 16.478 9" clip-rule="evenodd"/></g><defs><clipPath id="a"><path fill="#fff" d="M9 9h15v15H9z"/></clipPath></defs></svg>